<?xml version="1.0" encoding="UTF-8"?>
<svg xmlns="http://www.w3.org/2000/svg" xmlns:xlink="http://www.w3.org/1999/xlink" width="120pt" height="120pt" viewBox="0 0 120 120" version="1.1">
<g id="surface1">
<path style=" stroke:none;fill-rule:nonzero;fill:rgb(58.4%,34.5%,69.8%);fill-opacity:1;" d="M 46.800781 20.398438 L 46.800781 0.601562 C 79.605469 0.601562 106.199219 27.195312 106.199219 60 C 106.199219 92.804688 79.605469 119.398438 46.800781 119.398438 L 46.800781 99.601562 C 68.671875 99.601562 86.398438 81.871094 86.398438 60 C 86.398438 38.128906 68.671875 20.398438 46.800781 20.398438 Z M 46.800781 20.398438 "/>
<path style=" stroke:none;fill-rule:nonzero;fill:rgb(79.6%,23.5%,20%);fill-opacity:1;" d="M 46.800781 60 L 46.800781 33.601562 C 61.378906 33.601562 73.199219 45.417969 73.199219 60 C 73.199219 74.582031 61.378906 86.398438 46.800781 86.398438 Z M 46.800781 60 "/>
<path style=" stroke:none;fill-rule:nonzero;fill:rgb(22%,59.6%,14.9%);fill-opacity:1;" d="M 13.800781 0.601562 L 33.601562 0.601562 L 33.601562 119.402344 L 13.800781 119.402344 Z M 13.800781 0.601562 "/>
<path style=" stroke:none;fill-rule:nonzero;fill:rgb(25.1%,38.8%,84.7%);fill-opacity:1;" d="M 33.601562 119.398438 L 33.601562 99.601562 L 46.800781 99.601562 Z M 33.601562 119.398438 "/>
<path style=" stroke:none;fill-rule:nonzero;fill:rgb(25.1%,38.8%,84.7%);fill-opacity:1;" d="M 33.601562 0.601562 L 33.601562 20.398438 L 46.800781 20.398438 Z M 33.601562 0.601562 "/>
</g>
</svg>
